<svg width="1000" height="400" viewBox="0 0 1000 400" fill="none" xmlns="http://www.w3.org/2000/svg"><path d="M887.569 46.0008H111.55C108.721 46.0008 105.926 46.0008 103.105 46.0162C100.743 46.0316 98.4006 46.0764 96.0162 46.1142C90.8365 46.1751 85.6689 46.6308 80.5584 47.4772C75.455 48.3421 70.5115 49.9727 65.895 52.3138C61.2844 54.6749 57.0715 57.7428 53.4093 61.4062C49.7278 65.059 46.659 69.2812 44.3208 73.9104C41.9761 78.5309 40.3503 83.4821 39.4996 88.5931C38.6407 93.6974 38.1786 98.8606 38.1173 104.036C38.0455 106.401 38.0378 108.774 38 111.14V289.441C38.0378 291.836 38.0455 294.156 38.1173 296.553C38.1786 301.728 38.6408 306.891 39.4996 311.995C40.348 317.108 41.9739 322.062 44.3208 326.684C46.6578 331.299 49.7271 335.504 53.4093 339.137C57.0576 342.816 61.2732 345.886 65.895 348.229C70.5114 350.576 75.4544 352.217 80.5584 353.095C85.6697 353.935 90.8368 354.391 96.0162 354.459C98.3998 354.511 100.743 354.541 103.105 354.541C105.926 354.557 108.721 354.557 111.55 354.557H887.568C890.341 354.557 893.158 354.557 895.93 354.541C898.281 354.541 900.692 354.511 903.042 354.459C908.212 354.394 913.369 353.938 918.47 353.095C923.59 352.211 928.551 350.571 933.19 348.229C937.807 345.885 942.019 342.815 945.665 339.137C949.337 335.49 952.413 331.287 954.779 326.684C957.108 322.059 958.718 317.105 959.554 311.995C960.415 306.89 960.893 301.728 960.987 296.552C961.017 294.156 961.018 291.836 961.018 289.441C961.079 286.638 961.079 283.851 961.079 281.003V119.562C961.079 116.736 961.079 113.935 961.018 111.14C961.018 108.774 961.017 106.401 960.987 104.036C960.894 98.8594 960.415 93.6973 959.555 88.5923C958.717 83.4848 957.106 78.5345 954.779 73.9112C950.018 64.6317 942.467 57.0782 933.19 52.3131C928.551 49.9776 923.59 48.3475 918.47 47.4764C913.37 46.6264 908.212 46.1707 903.042 46.1134C900.692 46.0756 898.281 46.0301 895.93 46.0154C893.158 46 890.341 46 887.568 46L887.569 46.0008Z" fill="#A6A6A6"/><path d="M103.408 347.057C101.058 347.057 98.7643 347.027 96.4324 346.975C91.602 346.912 86.7828 346.492 82.0144 345.718C77.5681 344.951 73.2608 343.527 69.2348 341.49C65.2454 339.471 61.6069 336.823 58.4584 333.648C55.2642 330.511 52.6048 326.872 50.5856 322.876C48.5445 318.854 47.1318 314.543 46.397 310.092C45.6037 305.311 45.1746 300.476 45.1134 295.629C45.064 294.002 45 288.586 45 288.586V110.39C45 110.39 45.0679 105.056 45.1134 103.489C45.1722 98.6499 45.599 93.8225 46.39 89.0483C47.1263 84.586 48.5402 80.2623 50.5825 76.227C52.5939 72.2336 55.2382 68.5918 58.4129 65.443C61.5843 62.2643 65.2346 59.6028 69.2309 57.5556C73.2478 55.526 77.547 54.1117 81.9843 53.36C86.7684 52.5779 91.6044 52.1553 96.4517 52.0957L103.412 52H896.159L903.202 52.098C908.006 52.155 912.798 52.5743 917.538 53.3522C922.021 54.1136 926.365 55.538 930.428 57.5787C938.433 61.7044 944.947 68.2316 949.057 76.2456C951.067 80.2532 952.458 84.5418 953.185 88.9658C953.986 93.779 954.434 98.6442 954.526 103.523C954.549 105.707 954.549 108.054 954.549 110.39C954.611 113.282 954.611 116.035 954.611 118.812V280.253C954.611 283.055 954.611 285.79 954.549 288.547C954.549 291.055 954.549 293.353 954.518 295.718C954.428 300.51 953.987 305.289 953.199 310.016C952.479 314.498 951.074 318.843 949.034 322.898C947.001 326.851 944.357 330.458 941.2 333.587C938.049 336.779 934.404 339.443 930.405 341.475C926.354 343.527 922.016 344.956 917.538 345.716C912.77 346.495 907.951 346.915 903.12 346.974C900.813 347.028 898.505 347.056 896.197 347.057L887.835 347.072L103.408 347.057Z" fill="black"/><path d="M230.146 194.516C230.229 188.078 231.939 181.765 235.117 176.165C238.295 170.565 242.838 165.86 248.323 162.488C244.839 157.511 240.242 153.416 234.897 150.527C229.553 147.637 223.609 146.034 217.536 145.844C204.582 144.484 192.025 153.595 185.423 153.595C178.695 153.595 168.532 145.979 157.589 146.204C150.51 146.433 143.611 148.491 137.564 152.179C131.517 155.866 126.528 161.057 123.084 167.246C108.166 193.076 119.294 231.036 133.585 251.915C140.735 262.139 149.091 273.558 160.025 273.153C170.725 272.71 174.72 266.33 187.637 266.33C200.432 266.33 204.181 273.153 215.337 272.896C226.819 272.71 234.052 262.627 240.951 252.306C246.088 245.022 250.041 236.971 252.664 228.451C245.994 225.63 240.301 220.908 236.297 214.873C232.293 208.838 230.153 201.759 230.146 194.516ZM209.074 132.112C215.334 124.597 218.418 114.938 217.671 105.186C208.107 106.191 199.273 110.762 192.928 117.988C189.826 121.518 187.45 125.626 185.937 130.075C184.423 134.524 183.801 139.228 184.106 143.918C188.89 143.967 193.622 142.93 197.947 140.885C202.272 138.84 206.077 135.841 209.074 132.112V132.112ZM365.396 247.272H328.883L320.115 273.162H304.649L339.234 177.371H355.302L389.887 273.162H374.157L365.396 247.272ZM332.665 235.323H361.607L347.34 193.304H346.94L332.665 235.323ZM464.577 238.247C464.577 259.949 452.961 273.893 435.432 273.893C430.991 274.125 426.575 273.103 422.688 270.942C418.802 268.781 415.603 265.569 413.457 261.674H413.125V296.266H398.79V203.323H412.666V214.939H412.93C415.175 211.064 418.428 207.868 422.344 205.694C426.259 203.52 430.691 202.448 435.168 202.593C452.893 202.593 464.577 216.604 464.577 238.246V238.247ZM449.842 238.247C449.842 224.107 442.535 214.811 431.387 214.811C420.433 214.811 413.066 224.303 413.066 238.246C413.066 252.319 420.433 261.743 431.387 261.743C442.535 261.743 449.842 252.515 449.842 238.246V238.247ZM541.445 238.247C541.445 259.949 529.829 273.893 512.299 273.893C507.859 274.125 503.443 273.102 499.556 270.941C495.67 268.78 492.471 265.569 490.325 261.674H489.994V296.266H475.658V203.323H489.534V214.939H489.798C492.042 211.064 495.295 207.868 499.211 205.694C503.127 203.52 507.559 202.448 512.035 202.593C529.761 202.593 541.445 216.604 541.445 238.246V238.247ZM526.71 238.247C526.71 224.107 519.403 214.811 508.254 214.811C497.3 214.811 489.934 224.303 489.934 238.246C489.934 252.319 497.3 261.743 508.254 261.743C519.403 261.743 526.71 252.515 526.71 238.246V238.247ZM592.248 246.473C593.311 255.972 602.539 262.209 615.149 262.209C627.232 262.209 635.925 255.972 635.925 247.407C635.925 239.971 630.682 235.519 618.268 232.469L605.853 229.478C588.263 225.229 580.097 217.003 580.097 203.654C580.097 187.126 594.501 175.774 614.953 175.774C635.194 175.774 649.071 187.126 649.537 203.654H635.066C634.2 194.095 626.298 188.324 614.749 188.324C603.201 188.324 595.299 194.163 595.299 202.66C595.299 209.433 600.346 213.418 612.693 216.468L623.247 219.059C642.9 223.707 651.067 231.602 651.067 245.613C651.067 263.535 636.792 274.759 614.086 274.759C592.842 274.759 578.5 263.798 577.573 246.472L592.248 246.473ZM682.005 186.796V203.323H695.286V214.676H682.005V253.177C682.005 259.159 684.664 261.946 690.503 261.946C692.079 261.918 693.653 261.807 695.218 261.614V272.899C692.593 273.389 689.926 273.611 687.256 273.561C673.116 273.561 667.602 268.251 667.602 254.706V214.676H657.447V203.323H667.602V186.796H682.005ZM702.978 238.247C702.978 216.272 715.919 202.465 736.101 202.465C756.35 202.465 769.231 216.272 769.231 238.247C769.231 260.281 756.417 274.029 736.1 274.029C715.791 274.029 702.978 260.281 702.978 238.247ZM754.624 238.247C754.624 223.173 747.717 214.276 736.1 214.276C724.485 214.276 717.584 223.24 717.584 238.247C717.584 253.381 724.485 262.209 736.1 262.209C747.717 262.209 754.624 253.381 754.624 238.247ZM781.05 203.323H794.723V215.21H795.055C795.98 211.498 798.155 208.217 801.214 205.919C804.273 203.621 808.03 202.446 811.854 202.593C813.506 202.587 815.153 202.766 816.765 203.127V216.536C814.68 215.899 812.504 215.606 810.324 215.67C808.242 215.585 806.165 215.953 804.238 216.746C802.311 217.54 800.578 218.741 799.159 220.268C797.74 221.794 796.668 223.61 796.017 225.59C795.365 227.57 795.15 229.667 795.386 231.738V273.162H781.05V203.323ZM882.86 252.65C880.932 265.328 868.585 274.029 852.788 274.029C832.472 274.029 819.861 260.417 819.861 238.578C819.861 216.672 832.539 202.465 852.185 202.465C871.509 202.465 883.659 215.738 883.659 236.913V241.825H834.332V242.691C834.104 245.261 834.426 247.851 835.276 250.287C836.126 252.723 837.484 254.951 839.261 256.822C841.038 258.693 843.193 260.165 845.582 261.139C847.972 262.113 850.541 262.568 853.119 262.473C856.507 262.791 859.907 262.006 862.813 260.236C865.719 258.466 867.976 255.806 869.248 252.65H882.86ZM834.4 231.806H869.315C869.444 229.495 869.094 227.182 868.286 225.013C867.479 222.844 866.232 220.865 864.623 219.2C863.015 217.536 861.08 216.222 858.939 215.341C856.799 214.46 854.499 214.03 852.185 214.08C849.851 214.066 847.537 214.515 845.377 215.4C843.216 216.285 841.253 217.589 839.599 219.237C837.946 220.885 836.635 222.844 835.743 225.002C834.85 227.159 834.394 229.471 834.4 231.806V231.806ZM330.868 105.269C333.874 105.053 336.89 105.507 339.698 106.598C342.507 107.689 345.039 109.39 347.111 111.578C349.183 113.766 350.743 116.386 351.679 119.25C352.616 122.114 352.905 125.15 352.526 128.14C352.526 142.844 344.578 151.297 330.868 151.297H314.242V105.268L330.868 105.269ZM321.392 144.787H330.07C332.217 144.915 334.367 144.563 336.361 143.756C338.355 142.949 340.144 141.707 341.598 140.122C343.052 138.536 344.134 136.646 344.766 134.589C345.397 132.533 345.562 130.361 345.249 128.233C345.539 126.113 345.358 123.955 344.717 121.913C344.076 119.872 342.991 117.997 341.54 116.424C340.089 114.851 338.309 113.618 336.326 112.814C334.343 112.01 332.206 111.655 330.07 111.773H321.392V144.787ZM360.601 133.913C360.383 131.631 360.644 129.328 361.368 127.152C362.092 124.976 363.262 122.975 364.805 121.278C366.347 119.581 368.227 118.226 370.324 117.298C372.421 116.37 374.689 115.891 376.982 115.891C379.275 115.891 381.543 116.37 383.64 117.298C385.737 118.226 387.617 119.581 389.159 121.278C390.702 122.975 391.872 124.976 392.596 127.152C393.32 129.328 393.581 131.631 393.362 133.913C393.586 136.199 393.328 138.506 392.606 140.685C391.885 142.865 390.715 144.87 389.172 146.571C387.629 148.272 385.748 149.631 383.648 150.561C381.549 151.491 379.278 151.971 376.982 151.971C374.686 151.971 372.415 151.491 370.315 150.561C368.216 149.631 366.334 148.272 364.792 146.571C363.249 144.87 362.079 142.865 361.358 140.685C360.636 138.506 360.378 136.199 360.601 133.913ZM386.312 133.913C386.312 126.384 382.929 121.981 376.994 121.981C371.035 121.981 367.683 126.384 367.683 133.913C367.683 141.503 371.035 145.872 376.994 145.872C382.929 145.872 386.312 141.473 386.312 133.913V133.913ZM436.912 151.296H429.8L422.621 125.714H422.079L414.931 151.296H407.887L398.312 116.56H405.265L411.488 143.065H412L419.142 116.56H425.718L432.859 143.065H433.401L439.593 116.56H446.449L436.912 151.296ZM454.501 116.561H461.101V122.079H461.613C462.482 120.097 463.947 118.435 465.806 117.326C467.664 116.217 469.822 115.715 471.979 115.89C473.669 115.763 475.366 116.018 476.944 116.636C478.522 117.254 479.941 118.219 481.096 119.459C482.251 120.7 483.111 122.185 483.614 123.803C484.117 125.422 484.25 127.133 484.002 128.809V151.295H477.146V130.531C477.146 124.949 474.72 122.173 469.651 122.173C468.503 122.12 467.358 122.315 466.293 122.746C465.228 123.176 464.269 123.832 463.481 124.668C462.693 125.504 462.095 126.501 461.729 127.589C461.362 128.678 461.235 129.833 461.357 130.975V151.296H454.501V116.561ZM494.924 103.001H501.779V151.296H494.924V103.001ZM511.309 133.913C511.09 131.63 511.351 129.327 512.075 127.151C512.799 124.975 513.97 122.974 515.513 121.277C517.055 119.58 518.935 118.223 521.033 117.296C523.13 116.368 525.398 115.888 527.692 115.888C529.985 115.888 532.253 116.368 534.35 117.296C536.448 118.223 538.328 119.58 539.87 121.277C541.413 122.974 542.584 124.975 543.308 127.151C544.032 129.327 544.293 131.63 544.074 133.913C544.296 136.198 544.038 138.505 543.316 140.684C542.593 142.863 541.423 144.867 539.88 146.567C538.337 148.267 536.456 149.626 534.357 150.555C532.258 151.485 529.987 151.965 527.692 151.965C525.396 151.965 523.125 151.485 521.026 150.555C518.927 149.626 517.046 148.267 515.503 146.567C513.96 144.867 512.79 142.863 512.068 140.684C511.345 138.505 511.087 136.198 511.309 133.913V133.913ZM537.019 133.913C537.019 126.384 533.637 121.981 527.701 121.981C521.742 121.981 518.39 126.384 518.39 133.913C518.39 141.503 521.743 145.872 527.701 145.872C533.637 145.872 537.019 141.473 537.019 133.913ZM551.291 141.473C551.291 135.22 555.946 131.615 564.21 131.103L573.619 130.561V127.563C573.619 123.894 571.193 121.823 566.508 121.823C562.681 121.823 560.029 123.227 559.268 125.683H552.631C553.332 119.717 558.944 115.891 566.824 115.891C575.532 115.891 580.444 120.226 580.444 127.563V151.296H573.845V146.415H573.302C572.201 148.166 570.656 149.593 568.823 150.551C566.99 151.509 564.935 151.964 562.869 151.868C561.411 152.02 559.937 151.864 558.543 151.412C557.149 150.959 555.865 150.219 554.774 149.239C553.683 148.26 552.809 147.063 552.209 145.725C551.609 144.388 551.296 142.939 551.291 141.473V141.473ZM573.619 138.505V135.6L565.136 136.143C560.353 136.463 558.183 138.091 558.183 141.152C558.183 144.279 560.895 146.098 564.624 146.098C565.717 146.209 566.821 146.099 567.87 145.774C568.919 145.449 569.892 144.917 570.731 144.208C571.57 143.5 572.258 142.63 572.754 141.65C573.251 140.67 573.544 139.601 573.619 138.505V138.505ZM589.454 133.913C589.454 122.937 595.096 115.985 603.872 115.985C606.043 115.885 608.197 116.405 610.083 117.484C611.97 118.563 613.51 120.157 614.524 122.079H615.036V103H621.891V151.295H615.322V145.807H614.78C613.688 147.716 612.094 149.29 610.171 150.358C608.249 151.427 606.07 151.948 603.872 151.868C595.035 151.868 589.454 144.914 589.454 133.913V133.913ZM596.535 133.913C596.535 141.28 600.008 145.714 605.815 145.714C611.593 145.714 615.164 141.217 615.164 133.943C615.164 126.704 611.556 122.143 605.815 122.143C600.045 122.143 596.535 126.606 596.535 133.913ZM650.253 133.913C650.035 131.631 650.296 129.328 651.02 127.152C651.743 124.976 652.914 122.975 654.456 121.278C655.999 119.581 657.879 118.226 659.976 117.298C662.073 116.37 664.34 115.891 666.634 115.891C668.927 115.891 671.194 116.37 673.291 117.298C675.388 118.226 677.268 119.581 678.811 121.278C680.353 122.975 681.524 124.976 682.248 127.152C682.971 129.328 683.232 131.631 683.014 133.913C683.237 136.199 682.98 138.506 682.258 140.685C681.536 142.865 680.367 144.87 678.824 146.571C677.281 148.272 675.399 149.631 673.3 150.561C671.201 151.491 668.93 151.971 666.634 151.971C664.337 151.971 662.066 151.491 659.967 150.561C657.868 149.631 655.986 148.272 654.443 146.571C652.901 144.87 651.731 142.865 651.009 140.685C650.287 138.506 650.03 136.199 650.253 133.913V133.913ZM675.964 133.913C675.964 126.384 672.581 121.981 666.645 121.981C660.686 121.981 657.334 126.384 657.334 133.913C657.334 141.503 660.687 145.872 666.645 145.872C672.581 145.872 675.964 141.473 675.964 133.913ZM692.212 116.561H698.811V122.079H699.323C700.192 120.097 701.658 118.435 703.516 117.326C705.374 116.217 707.532 115.715 709.689 115.89C711.38 115.763 713.077 116.018 714.655 116.636C716.233 117.254 717.652 118.219 718.807 119.459C719.961 120.7 720.822 122.185 721.325 123.803C721.828 125.422 721.96 127.133 721.712 128.809V151.295H714.857V130.531C714.857 124.949 712.431 122.173 707.361 122.173C706.214 122.12 705.068 122.315 704.004 122.746C702.939 123.176 701.979 123.832 701.192 124.668C700.404 125.504 699.806 126.501 699.44 127.589C699.073 128.678 698.946 129.833 699.067 130.975V151.296H692.213L692.212 116.561ZM760.448 107.913V116.719H767.973V122.493H760.448V140.354C760.448 143.992 761.946 145.586 765.359 145.586C766.233 145.583 767.105 145.53 767.973 145.427V151.138C766.742 151.358 765.494 151.475 764.244 151.488C756.621 151.488 753.585 148.806 753.585 142.109V122.493H748.071V116.718H753.585V107.914L760.448 107.913ZM777.336 103.001H784.132V122.143H784.674C785.585 120.142 787.091 118.471 788.986 117.358C790.882 116.244 793.074 115.742 795.265 115.92C796.947 115.828 798.627 116.109 800.188 116.742C801.748 117.375 803.15 118.344 804.292 119.581C805.435 120.818 806.29 122.292 806.798 123.898C807.305 125.503 807.452 127.201 807.228 128.87V151.296H800.366V130.561C800.366 125.012 797.781 122.203 792.938 122.203C791.76 122.106 790.575 122.268 789.466 122.678C788.356 123.087 787.35 123.734 786.517 124.572C785.684 125.411 785.044 126.422 784.643 127.534C784.241 128.645 784.087 129.832 784.192 131.009V151.296H777.336V103.001ZM847.199 141.917C846.268 145.091 844.25 147.838 841.498 149.675C838.747 151.512 835.437 152.323 832.148 151.966C829.859 152.027 827.585 151.588 825.483 150.682C823.381 149.775 821.501 148.422 819.975 146.716C818.448 145.01 817.311 142.993 816.642 140.803C815.973 138.614 815.789 136.305 816.102 134.038C815.797 131.763 815.985 129.449 816.652 127.253C817.319 125.057 818.45 123.03 819.969 121.309C821.487 119.588 823.358 118.214 825.454 117.279C827.55 116.344 829.822 115.87 832.117 115.89C841.782 115.89 847.613 122.493 847.613 133.4V135.793H823.085V136.177C822.978 137.451 823.138 138.734 823.556 139.944C823.973 141.153 824.639 142.261 825.51 143.198C826.381 144.135 827.438 144.88 828.613 145.384C829.789 145.889 831.057 146.142 832.336 146.128C833.976 146.325 835.637 146.029 837.108 145.279C838.58 144.53 839.795 143.359 840.6 141.917H847.199ZM823.085 130.723H840.63C840.716 129.557 840.558 128.386 840.165 127.285C839.772 126.184 839.153 125.178 838.347 124.331C837.542 123.483 836.568 122.814 835.489 122.365C834.41 121.916 833.248 121.698 832.08 121.725C830.894 121.71 829.717 121.932 828.619 122.379C827.521 122.826 826.523 123.489 825.685 124.327C824.847 125.166 824.185 126.164 823.738 127.262C823.292 128.361 823.07 129.537 823.085 130.723V130.723Z" fill="white"/></svg>
