<svg width="1000" height="400" viewBox="0 0 1000 400" fill="none" xmlns="http://www.w3.org/2000/svg"><path d="M926.889 336.947H72.1881C53.3848 336.947 38 321.537 38 302.703V97.2435C38 78.4095 53.3845 63 72.1881 63H926.888C945.692 63 961.077 78.4095 961.077 97.2435V302.703C961.077 321.537 945.692 336.947 926.888 336.947" fill="black"/><path d="M926.889 63H72.1881C53.3848 63 38 78.4095 38 97.2435V302.703C38 321.537 53.3845 336.947 72.1881 336.947H926.888C945.692 336.947 961.077 321.537 961.077 302.703V97.2435C961.077 78.4095 945.692 63 926.888 63H926.889ZM926.888 68.4788C942.725 68.4788 955.606 81.3846 955.606 97.2435V302.703C955.606 318.565 942.724 331.471 926.888 331.471H72.1881C56.3551 331.471 43.4701 318.565 43.4701 302.703V97.2435C43.4701 81.3846 56.3548 68.4791 72.1881 68.4791H926.888" fill="#A6A6A6"/><path d="M362.228 133.154C362.228 138.892 360.532 143.461 357.134 146.869C353.275 150.922 348.245 152.95 342.062 152.95C336.14 152.95 331.106 150.896 326.966 146.781C322.818 142.669 320.748 137.57 320.748 131.487C320.748 125.4 322.818 120.304 326.966 116.189C331.106 112.078 336.14 110.02 342.062 110.02C345 110.02 347.813 110.596 350.484 111.743C353.154 112.894 355.297 114.421 356.899 116.334L353.293 119.948C350.577 116.698 346.838 115.074 342.062 115.074C337.743 115.074 334.009 116.594 330.858 119.635C327.705 122.68 326.13 126.628 326.13 131.487C326.13 136.345 327.705 140.293 330.858 143.338C334.009 146.38 337.743 147.899 342.062 147.899C346.643 147.899 350.462 146.372 353.52 143.311C355.505 141.318 356.653 138.547 356.96 134.988H342.061V130.053H361.942C362.134 131.126 362.227 132.156 362.227 133.154" fill="white"/><path d="M362.229 133.153H361.545C361.539 138.761 359.904 143.116 356.651 146.385L356.644 146.39L356.641 146.396C352.904 150.309 348.101 152.257 342.062 152.265C336.299 152.257 331.475 150.288 327.447 146.297C323.427 142.297 321.44 137.415 321.432 131.486C321.44 125.555 323.427 120.676 327.447 116.679C331.475 112.685 336.299 110.713 342.062 110.705C344.912 110.705 347.626 111.262 350.214 112.372C352.805 113.49 354.851 114.956 356.376 116.776L356.9 116.334L356.416 115.849L352.81 119.466L353.293 119.948L353.82 119.509C350.978 116.098 346.988 114.379 342.062 114.389C337.584 114.383 333.644 115.986 330.385 119.143C327.095 122.31 325.441 126.481 325.447 131.486C325.441 136.492 327.095 140.662 330.385 143.83C333.644 146.987 337.584 148.59 342.062 148.584C346.795 148.592 350.829 146.984 354.004 143.795C356.125 141.665 357.327 138.715 357.642 135.047L357.706 134.303H342.746V130.737H361.943V130.052L361.269 130.173C361.456 131.211 361.545 132.198 361.545 133.153H362.912C362.912 132.112 362.816 131.043 362.615 129.93L362.514 129.368H341.379V135.673H356.961V134.988L356.28 134.929C355.978 138.375 354.883 140.97 353.037 142.827C350.099 145.759 346.494 147.206 342.062 147.214C337.904 147.209 334.376 145.775 331.334 142.846C328.321 139.927 326.822 136.2 326.814 131.486C326.822 126.773 328.321 123.046 331.334 120.127C334.376 117.198 337.904 115.764 342.062 115.758C346.686 115.769 350.177 117.299 352.771 120.389L353.252 120.962L357.383 116.818L357.827 116.374L357.423 115.895C355.743 113.889 353.505 112.297 350.754 111.115C347.998 109.929 345.089 109.335 342.062 109.335C335.984 109.33 330.738 111.47 326.483 115.705C322.212 119.932 320.06 125.245 320.065 131.486C320.06 137.725 322.212 143.041 326.486 147.27C330.738 151.503 335.984 153.641 342.062 153.635C348.393 153.641 353.644 151.535 357.629 147.342L357.134 146.869L357.618 147.354C361.16 143.809 362.917 139.02 362.912 133.153H362.228H362.229ZM393.745 115.989H375.062V129.018H391.911V133.955H375.062V146.984H393.745V152.032H369.795V110.94H393.745V115.989" fill="white"/><path d="M393.745 115.989V115.304H374.378V129.703H391.227V133.269L374.378 133.271V147.669H393.061V151.348H370.479V111.626H393.061V115.989H393.745V115.304V115.989H394.429V110.256H369.111V152.717H394.429V146.3H375.746V134.64H392.594V128.333H375.746V116.674H394.429V115.989H393.745V115.989ZM415.975 152.033H410.7V115.989H399.242V110.94H427.434V115.989H415.975V152.032" fill="white"/><path d="M415.975 152.033V151.348H411.383V115.304H399.925V111.626H426.75V115.304H415.291V152.033H415.975V151.348V152.033H416.659V116.674H428.117V110.256H398.558V116.673H410.016V152.717H416.659V152.032H415.975V152.033ZM447.831 152.033V110.94H453.101V152.032H447.831" fill="white"/><path d="M447.832 152.033H448.516V111.626H452.418V151.348H447.832V152.033H448.516H447.832V152.717H453.785V110.256H447.148V152.717H447.832V152.033V152.033ZM476.486 152.033H471.211V115.989H459.753V110.94H487.944V115.989H476.486V152.032" fill="white"/><path d="M476.485 152.033V151.348H471.894V115.304H460.436V111.626H487.26V115.304H475.801V152.033H476.485V151.348V152.033H477.169V116.674H488.627V110.256H459.068V116.673H470.526V152.717H477.169V152.032H476.485V152.033ZM515.123 143.282C518.16 146.361 521.875 147.899 526.269 147.899C530.663 147.899 534.38 146.361 537.412 143.282C540.452 140.203 541.974 136.267 541.974 131.487C541.974 126.707 540.452 122.77 537.412 119.691C534.38 116.612 530.663 115.074 526.269 115.074C521.875 115.074 518.16 116.612 515.123 119.691C512.091 122.77 510.569 126.706 510.569 131.487C510.569 136.267 512.091 140.203 515.123 143.282ZM541.312 146.722C537.278 150.876 532.262 152.95 526.269 152.95C520.27 152.95 515.256 150.876 511.232 146.722C507.196 142.572 505.187 137.493 505.187 131.487C505.187 125.48 507.196 120.4 511.232 116.251C515.256 112.096 520.27 110.02 526.269 110.02C532.231 110.02 537.233 112.107 541.285 116.278C545.331 120.448 547.356 125.518 547.356 131.487C547.356 137.493 545.336 142.572 541.312 146.722Z" fill="white"/><path d="M515.123 143.282L514.637 143.763C517.787 146.966 521.716 148.592 526.269 148.584C530.82 148.592 534.755 146.966 537.899 143.763C541.069 140.558 542.663 136.411 542.658 131.486C542.663 126.562 541.069 122.415 537.899 119.209C534.755 116.007 530.82 114.381 526.269 114.389C521.716 114.381 517.787 116.007 514.637 119.209C511.475 122.415 509.877 126.562 509.886 131.486C509.877 136.411 511.475 140.558 514.637 143.763L515.123 143.282L515.61 142.8C512.709 139.844 511.259 136.125 511.253 131.486C511.259 126.848 512.709 123.129 515.609 120.172C518.537 117.217 522.033 115.767 526.269 115.759C530.502 115.767 534.007 117.217 536.926 120.172C539.832 123.129 541.283 126.848 541.288 131.486C541.283 136.125 539.832 139.844 536.926 142.8C534.007 145.756 530.503 147.206 526.269 147.214C522.033 147.206 518.537 145.756 515.609 142.8L515.123 143.282ZM541.312 146.722L540.823 146.246C536.902 150.27 532.108 152.257 526.269 152.265C520.428 152.257 515.633 150.27 511.72 146.246L511.702 146.225L511.72 146.246C507.808 142.209 505.877 137.34 505.871 131.486C505.877 125.633 507.808 120.764 511.72 116.727C515.633 112.703 520.428 110.713 526.269 110.705C532.07 110.713 536.854 112.711 540.796 116.756C544.723 120.812 546.665 125.673 546.673 131.486C546.665 137.34 544.728 142.209 540.823 146.246L541.312 146.722L541.804 147.198C545.949 142.934 548.045 137.645 548.04 131.486C548.045 125.363 545.941 120.085 541.776 115.802C537.61 111.502 532.391 109.328 526.269 109.335C520.116 109.328 514.881 111.492 510.74 115.775V115.772C506.587 120.039 504.498 125.328 504.504 131.486C504.498 137.645 506.587 142.934 510.74 147.201L510.759 147.22L510.74 147.198C514.881 151.481 520.116 153.641 526.269 153.635C532.42 153.641 537.655 151.481 541.804 147.198L541.312 146.722V146.722ZM554.755 152.033V110.94H561.171L581.109 142.907H581.336L581.109 134.988V110.94H586.384V152.032H580.882L560.022 118.516H559.795L560.022 126.438V152.032H554.755" fill="white"/><path d="M554.755 152.033H555.439V111.626H560.791L580.73 143.592H582.039L581.793 134.978V111.626H585.701V151.348H581.262L560.402 117.832H559.093L559.338 126.45V151.348H554.755V152.033H555.439H554.755V152.717H560.706V126.428L560.479 118.498L559.795 118.517V119.202H560.022V118.517L559.442 118.881L580.503 152.717H587.068V110.256H580.426V134.996L580.653 142.926L581.337 142.907V142.223H581.109V142.907L581.689 142.544L561.55 110.256H554.072V152.717H554.756V152.033L554.755 152.033ZM769.187 268.46H781.946V182.844H769.187L769.187 268.46ZM884.106 213.685L869.481 250.804H869.043L853.864 213.684H840.12L862.882 265.565L849.905 294.423H863.217L898.294 213.684L884.106 213.685ZM811.751 258.736C807.566 258.736 801.741 256.643 801.741 251.464C801.741 244.856 809.002 242.323 815.265 242.323C820.879 242.323 823.512 243.534 826.923 245.188C825.932 253.118 819.115 258.736 811.751 258.736V258.736ZM813.289 211.811C804.051 211.811 794.486 215.888 790.527 224.92L801.85 229.656C804.27 224.92 808.776 223.377 813.508 223.377C820.106 223.377 826.814 227.344 826.923 234.393V235.274C824.612 233.952 819.669 231.97 813.617 231.97C801.412 231.97 788.982 238.687 788.982 251.245C788.982 262.7 798.992 270.081 810.205 270.081C818.787 270.081 823.512 266.226 826.486 261.711H826.923V268.318H839.238V235.493C839.238 220.295 827.915 211.811 813.289 211.811V211.811ZM734.438 224.107H716.291V194.76H734.438C743.977 194.76 749.392 202.67 749.392 209.433C749.392 216.068 743.976 224.107 734.438 224.107ZM734.11 182.844H703.539V268.46H716.291V236.023H734.11C748.25 236.023 762.151 225.768 762.151 209.433C762.151 193.098 748.25 182.844 734.11 182.844V182.844ZM567.402 258.751C558.588 258.751 551.208 251.36 551.208 241.207C551.208 230.948 558.588 223.444 567.402 223.444C576.104 223.444 582.934 230.948 582.934 241.207C582.934 251.36 576.104 258.751 567.402 258.751H567.402ZM582.052 218.479H581.611C578.748 215.059 573.238 211.97 566.299 211.97C551.758 211.97 538.43 224.768 538.43 241.207C538.43 257.537 551.758 270.226 566.299 270.226C573.238 270.226 578.748 267.135 581.611 263.607H582.052V267.799C582.052 278.945 576.104 284.902 566.521 284.902C558.7 284.902 553.853 279.273 551.868 274.53L540.744 279.164C543.938 286.887 552.421 296.377 566.521 296.377C581.502 296.377 594.17 287.548 594.17 266.034V213.735H582.052V218.479ZM602.982 268.46H615.76V182.84H602.982V268.46ZM634.597 240.215C634.266 228.96 643.299 223.224 649.798 223.224C654.869 223.224 659.163 225.76 660.592 229.404L634.597 240.215ZM674.253 230.506C671.833 223.994 664.448 211.97 649.357 211.97C634.376 211.97 621.929 223.775 621.929 241.098C621.929 257.428 634.266 270.226 650.789 270.226C664.12 270.226 671.833 262.061 675.026 257.317L665.111 250.696C661.809 255.552 657.289 258.751 650.789 258.751C644.29 258.751 639.665 255.771 636.689 249.925L675.573 233.815L674.253 230.506ZM364.454 220.907V233.264H393.975C393.094 240.215 390.78 245.29 387.255 248.821C382.96 253.125 376.24 257.869 364.453 257.869C346.277 257.869 332.068 243.195 332.068 224.989C332.068 206.785 346.277 192.109 364.454 192.109C374.258 192.109 381.416 195.971 386.705 200.936L395.407 192.221C388.027 185.158 378.222 179.751 364.454 179.751C339.557 179.751 318.628 200.054 318.628 224.989C318.628 249.925 339.557 270.226 364.454 270.226C377.894 270.226 388.027 265.814 395.957 257.537C404.109 249.372 406.644 237.898 406.644 228.631C406.644 225.76 406.424 223.114 405.981 220.907H364.454ZM440.207 258.751C431.392 258.751 423.791 251.469 423.791 241.098C423.791 230.616 431.392 223.444 440.207 223.444C449.018 223.444 456.619 230.616 456.619 241.098C456.619 251.469 449.018 258.751 440.207 258.751ZM440.207 211.97C424.122 211.97 411.013 224.216 411.013 241.098C411.013 257.869 424.122 270.226 440.207 270.226C456.288 270.226 469.397 257.869 469.397 241.098C469.397 224.216 456.288 211.97 440.207 211.97ZM503.887 258.751C495.076 258.751 487.474 251.469 487.474 241.098C487.474 230.616 495.076 223.444 503.887 223.444C512.698 223.444 520.3 230.616 520.3 241.098C520.3 251.469 512.698 258.751 503.887 258.751H503.887ZM503.887 211.97C487.803 211.97 474.697 224.216 474.697 241.098C474.697 257.869 487.803 270.226 503.887 270.226C519.969 270.226 533.078 257.869 533.078 241.098C533.078 224.216 519.969 211.97 503.887 211.97H503.887Z" fill="white"/><path d="M109.854 115.128C107.559 117.201 106.189 120.66 106.189 125.251V124.213V275.713V274.715C106.189 278.955 107.364 282.229 109.354 284.338L109.862 284.825V284.827C111.472 286.283 113.537 287.056 115.904 287.053C118.216 287.053 120.818 286.315 123.564 284.755L222.813 228.272L256.905 208.869C261.234 206.405 263.665 203.227 264.071 199.989V199.976C263.665 196.731 261.234 193.556 256.905 191.092L222.81 171.69L123.564 115.208C120.813 113.645 118.209 112.904 115.89 112.904C113.526 112.904 111.464 113.675 109.854 115.128H109.854Z" fill="#00C1FF"/><path d="M109.862 284.825L109.354 284.338C107.364 282.229 106.189 278.955 106.189 274.715V275.713V124.25V125.251C106.189 120.66 107.559 117.201 109.854 115.127L194.57 199.979L109.862 284.825Z" fill="url(#paint0_linear_1407_52)"/><path d="M222.813 228.272L194.57 199.979L222.811 171.69L256.905 191.091C261.234 193.555 263.665 196.731 264.071 199.976V199.989C263.665 203.226 261.234 206.405 256.905 208.868L222.813 228.272" fill="url(#paint1_linear_1407_52)"/><path d="M115.904 287.053C113.537 287.055 111.472 286.282 109.862 284.826V284.824L194.571 199.978L222.813 228.272L123.564 284.755C120.818 286.314 118.216 287.053 115.904 287.053Z" fill="url(#paint2_linear_1407_52)"/><path d="M194.571 199.979L109.854 115.128C111.464 113.675 113.526 112.904 115.89 112.904C118.208 112.904 120.812 113.645 123.564 115.208L222.81 171.69L194.57 199.979" fill="url(#paint3_linear_1407_52)"/><path d="M115.907 288.056C113.54 288.056 111.472 287.283 109.862 285.828L109.859 285.83C109.853 285.824 109.846 285.817 109.838 285.812L109.398 285.381C109.384 285.367 109.371 285.352 109.354 285.336L109.862 284.827C111.473 286.282 113.537 287.056 115.904 287.053C118.217 287.053 120.818 286.315 123.564 284.755L222.813 228.272L223.449 228.909L222.805 229.276L123.564 285.755C121.061 287.176 118.681 287.917 116.531 288.04C116.323 288.051 116.115 288.056 115.907 288.056" fill="url(#paint4_linear_1407_52)"/><path d="M109.354 285.336C107.364 283.228 106.189 279.956 106.189 275.713V274.715C106.189 278.955 107.364 282.229 109.354 284.338L109.862 284.825L109.354 285.336" fill="url(#paint5_linear_1407_52)"/><path d="M223.448 228.909L222.812 228.272L256.904 208.868C261.234 206.405 263.664 203.226 264.071 199.989C264.071 201.177 263.806 202.365 263.28 203.521C262.22 205.851 260.094 208.053 256.904 209.869L223.448 228.909" fill="url(#paint6_linear_1407_52)"/><path d="M264.071 199.977C263.665 196.731 261.234 193.556 256.905 191.092L222.811 171.691L223.446 171.054H223.449L256.905 190.094C261.678 192.812 264.069 196.394 264.071 199.977" fill="url(#paint7_linear_1407_52)"/><path d="M106.189 125.25V124.204C106.189 123.827 106.2 123.458 106.219 123.099V123.083C106.219 123.078 106.219 123.073 106.221 123.067V123.027C106.427 119.375 107.559 116.526 109.354 114.624L109.854 115.127C107.559 117.201 106.189 120.659 106.189 125.25Z" fill="url(#paint8_linear_1407_52)"/><path d="M222.811 171.69L123.564 115.207C120.813 113.645 118.209 112.904 115.891 112.904C113.527 112.904 111.464 113.674 109.854 115.127L109.354 114.624C109.511 114.459 109.673 114.299 109.841 114.146C109.846 114.14 109.854 114.135 109.86 114.129C111.457 112.688 113.497 111.917 115.84 111.903H115.891C118.209 111.903 120.813 112.644 123.564 114.207L223.449 171.051L223.447 171.053L222.811 171.69" fill="url(#paint9_linear_1407_52)"/><defs><linearGradient id="paint0_linear_1407_52" x1="160.329" y1="122.649" x2="87.3217" y2="195.774" gradientUnits="userSpaceOnUse"><stop stop-color="#00A0FF"/><stop offset="0.00657" stop-color="#00A1FF"/><stop offset="0.2601" stop-color="#00BEFF"/><stop offset="0.5122" stop-color="#00D2FF"/><stop offset="0.7604" stop-color="#00DFFF"/><stop offset="1" stop-color="#00E3FF"/></linearGradient><linearGradient id="paint1_linear_1407_52" x1="269.346" y1="199.49" x2="103.897" y2="199.49" gradientUnits="userSpaceOnUse"><stop stop-color="#FFE000"/><stop offset="0.4087" stop-color="#FFBD00"/><stop offset="0.7754" stop-color="#FFA500"/><stop offset="1" stop-color="#FF9C00"/></linearGradient><linearGradient id="paint2_linear_1407_52" x1="207.819" y1="226.878" x2="84.1035" y2="349.888" gradientUnits="userSpaceOnUse"><stop stop-color="#FF3A44"/><stop offset="1" stop-color="#C31162"/></linearGradient><linearGradient id="paint3_linear_1407_52" x1="88.0196" y1="102.548" x2="143.157" y2="157.455" gradientUnits="userSpaceOnUse"><stop stop-color="#32A071"/><stop offset="0.0685" stop-color="#2DA771"/><stop offset="0.4762" stop-color="#15CF74"/><stop offset="0.8009" stop-color="#06E775"/><stop offset="1" stop-color="#00F076"/></linearGradient><linearGradient id="paint4_linear_1407_52" x1="207.758" y1="246.505" x2="108.68" y2="345.742" gradientUnits="userSpaceOnUse"><stop stop-color="#CC2E36"/><stop offset="1" stop-color="#9C0E4E"/></linearGradient><linearGradient id="paint5_linear_1407_52" x1="117.475" y1="122.65" x2="53.157" y2="187.072" gradientUnits="userSpaceOnUse"><stop stop-color="#008DE0"/><stop offset="0.00657" stop-color="#008DE0"/><stop offset="0.2601" stop-color="#00A7E0"/><stop offset="0.5122" stop-color="#00B8E0"/><stop offset="0.7604" stop-color="#00C4E0"/><stop offset="1" stop-color="#00C7E0"/></linearGradient><linearGradient id="paint6_linear_1407_52" x1="269.346" y1="199.983" x2="103.896" y2="199.983" gradientUnits="userSpaceOnUse"><stop stop-color="#E0C500"/><stop offset="0.4087" stop-color="#E0A600"/><stop offset="0.7754" stop-color="#E09100"/><stop offset="1" stop-color="#E08900"/></linearGradient><linearGradient id="paint7_linear_1407_52" x1="269.347" y1="199.983" x2="103.897" y2="199.983" gradientUnits="userSpaceOnUse"><stop stop-color="#FFE840"/><stop offset="0.4087" stop-color="#FFCE40"/><stop offset="0.7754" stop-color="#FFBC40"/><stop offset="1" stop-color="#FFB540"/></linearGradient><linearGradient id="paint8_linear_1407_52" x1="117.405" y1="122.766" x2="55.4556" y2="182.127" gradientUnits="userSpaceOnUse"><stop stop-color="#40B8FF"/><stop offset="0.00657" stop-color="#40B9FF"/><stop offset="0.2601" stop-color="#40CEFF"/><stop offset="0.5122" stop-color="#40DDFF"/><stop offset="0.7604" stop-color="#40E7FF"/><stop offset="1" stop-color="#40EAFF"/></linearGradient><linearGradient id="paint9_linear_1407_52" x1="87.8967" y1="120.492" x2="132.139" y2="164.806" gradientUnits="userSpaceOnUse"><stop stop-color="#65B895"/><stop offset="0.0685" stop-color="#62BD95"/><stop offset="0.4762" stop-color="#50DB97"/><stop offset="0.8009" stop-color="#44ED98"/><stop offset="1" stop-color="#40F498"/></linearGradient></defs></svg>
