<svg width="24" height="24" viewBox="0 0 24 24" fill="none" xmlns="http://www.w3.org/2000/svg"><path d="M18.702 12.475c.03-.26.05-.522.05-.784 0-3.836-2.893-6.73-6.732-6.73-3.836 0-6.729 2.894-6.729 6.73 0 .262.017.524.048.784h13.363ZM12.02 7.333c2.071 0 3.675 1.234 4.185 3.071H7.833C8.345 8.57 9.95 7.333 12.02 7.333ZM16.475 14.24a4.663 4.663 0 0 1-4.1 2.437 4.673 4.673 0 0 1-4.1-2.437H5.699c.938 2.79 3.574 4.808 6.676 4.808a7.025 7.025 0 0 0 6.01-3.37l-1.91-1.438Z" fill="#0203A3"/><path d="M9.276.002v2.372h12.35v14.618a4.642 4.642 0 0 1-4.637 4.636H2.371v-7.39H0V24h16.992A7.016 7.016 0 0 0 24 16.992V.002H9.276Z" fill="#0098FF"/><path d="M7.124.002c-.33 0-.652.024-.97.068-1.731.279-3.282 1.282-3.862 2.713a.433.433 0 0 0-.02.05V.298H.003v12.175h2.372V7.12c0-2.619 2.13-4.75 4.75-4.75h.394V0h-.394v.002Z" fill="#0203A3"/></svg>