<svg width="207" height="32" viewBox="0 0 207 32" fill="none" xmlns="http://www.w3.org/2000/svg">
<g clip-path="url(#clip0_4800_170415)">
<path d="M162.473 22.4598C161.524 22.4598 160.746 21.6927 160.746 20.7564C160.746 19.8202 161.524 19.053 162.473 19.053C163.442 19.053 164.2 19.8202 164.2 20.7564C164.2 21.6927 163.442 22.4598 162.473 22.4598Z" fill="#0098FF"/>
<path d="M169.749 22.51C167.193 22.51 165.174 20.6374 165.174 18.0666C165.174 15.4958 167.193 13.6233 169.749 13.6233C171.546 13.6233 173.098 14.6097 173.841 16.0751L171.787 17.1648C171.441 16.382 170.698 15.8027 169.749 15.8027C168.504 15.8027 167.555 16.7577 167.555 18.0666C167.555 19.3786 168.504 20.3306 169.749 20.3306C170.698 20.3306 171.441 19.7513 171.787 18.9684L173.841 20.0581C173.098 21.5236 171.546 22.51 169.749 22.51Z" fill="#0098FF"/>
<path d="M179.325 22.51C176.823 22.51 174.785 20.5529 174.785 18.0666C174.785 15.5804 176.823 13.6233 179.325 13.6233C181.83 13.6233 183.865 15.5804 183.865 18.0666C183.865 20.5529 181.827 22.51 179.325 22.51ZM179.325 20.3306C180.57 20.3306 181.465 19.3755 181.465 18.0666C181.465 16.7546 180.567 15.8027 179.325 15.8027C178.084 15.8027 177.166 16.7577 177.166 18.0666C177.166 19.3755 178.081 20.3306 179.325 20.3306Z" fill="#0098FF"/>
<path d="M186.446 22.4598C185.497 22.4598 184.719 21.6927 184.719 20.7564C184.719 19.8202 185.497 19.053 186.446 19.053C187.414 19.053 188.173 19.8202 188.173 20.7564C188.173 21.6927 187.414 22.4598 186.446 22.4598Z" fill="#0098FF"/>
<path d="M189.875 13.808H192.24V14.7787C192.688 14.0961 193.586 13.6201 194.71 13.6201C196.799 13.6201 198.044 15.12 198.044 17.3307V22.3189H195.679V17.7221C195.679 16.4947 195.142 15.7463 194.158 15.7463C193.069 15.7463 192.24 16.5291 192.24 18.1637V22.3189H189.875V13.808Z" fill="#0098FF"/>
<path d="M199.717 20.4997L203.758 15.9186H199.771V13.8081H206.816V15.6462L202.793 20.2085H206.955V22.319H199.72V20.4997H199.717Z" fill="#0098FF"/>
<path d="M39.5586 22.2625V9.63707H42.8509V12.1703C42.8509 12.1703 42.9652 11.7977 43.1874 11.4063C43.416 11.0023 43.7557 10.5765 43.9367 10.4074C44.5463 9.83748 45.3844 9.48364 46.248 9.48364C46.4448 9.48364 46.7083 9.48991 47.0036 9.54314C47.0639 9.55253 47.1211 9.56193 47.1814 9.57758C47.2417 9.59011 47.2989 9.60263 47.3528 9.61829L47.4132 9.63394C47.5783 9.68091 47.7338 9.74041 47.8767 9.80304C48.1116 9.91263 48.4132 10.0661 48.7307 10.3134L47.3782 12.903C47.3782 12.903 47.2862 12.8749 47.2671 12.8717C47.0131 12.7934 46.7591 12.7371 46.502 12.7026C46.2829 12.6682 46.0575 12.6525 45.8289 12.6525C44.2129 12.6525 43.0858 13.7892 42.8858 15.6241C42.8636 15.8277 42.8509 16.0343 42.8509 16.2379V22.2657H39.5586V22.2625Z" fill="white"/>
<path d="M55.4875 22.5445C51.4872 22.5445 48.6934 19.8328 48.6934 15.9468C48.6934 12.1861 51.592 9.34912 55.4336 9.34912C58.5671 9.34912 61.7293 11.2686 61.7293 15.5585C61.7293 15.8435 61.7293 16.1629 61.6912 16.6263H51.8619L51.8809 16.7891C52.0841 18.4738 53.5445 19.6073 55.5129 19.6073C56.948 19.6073 58.2115 19.0249 58.9291 18.0416L61.361 19.8296C60.0974 21.5581 57.9671 22.5445 55.4875 22.5445ZM55.332 11.9794C54.0366 11.9794 52.3921 12.5994 52.0174 14.3436L51.9793 14.5221H58.4751L58.4401 14.3467C58.1417 12.9063 56.9226 11.9794 55.332 11.9794Z" fill="white"/>
<path d="M69.3193 22.5445C66.0079 22.5445 63.3125 19.5854 63.3125 15.9468C63.3125 12.3082 66.0079 9.34912 69.3193 9.34912C71.0369 9.34912 72.3894 10.1852 72.9704 11.0181L73.2434 11.4064V9.63407H76.5357V22.2595H73.2434V20.4872L72.9704 20.8755C72.3894 21.7084 71.0369 22.5445 69.3193 22.5445ZM70.0781 12.2894C68.0779 12.2894 66.627 13.83 66.627 15.9499C66.627 18.0698 68.0779 19.6104 70.0781 19.6104C72.0783 19.6104 73.5292 18.0698 73.5292 15.9499C73.5292 13.83 72.0783 12.2894 70.0781 12.2894Z" fill="white"/>
<path d="M82.6126 3.45605H79.3203V22.2596H82.6126V3.45605Z" fill="white"/>
<path d="M91.6672 22.5445C87.6669 22.5445 84.873 19.8328 84.873 15.9468C84.873 12.1861 87.7717 9.34912 91.6132 9.34912C94.7468 9.34912 97.909 11.2686 97.909 15.5585C97.909 15.8435 97.909 16.1629 97.8709 16.6263H88.0415L88.0606 16.7891C88.2638 18.4738 89.7242 19.6073 91.6926 19.6073C93.1277 19.6073 94.3912 19.0249 95.1088 18.0416L97.5407 19.8296C96.2739 21.5581 94.1436 22.5445 91.6672 22.5445ZM91.5085 11.9794C90.2131 11.9794 88.5686 12.5994 88.1939 14.3436L88.1558 14.5221H94.6516L94.6167 14.3467C94.3182 12.9063 93.0991 11.9794 91.5085 11.9794Z" fill="white"/>
<path d="M104.607 22.5445C102.306 22.5445 100.467 21.7272 99.4102 20.2367L101.642 18.3642C102.258 19.2598 103.353 19.789 104.611 19.789C105.576 19.789 106.201 19.3662 106.201 18.7118C106.201 18.0448 105.747 17.7098 104.338 17.3309L103.363 17.096C101.086 16.5105 99.8102 15.0575 99.861 13.1099C99.9086 10.896 101.874 9.35229 104.636 9.35229C106.503 9.35229 107.998 10.0412 108.966 11.3501L106.833 13.0566C106.22 12.3521 105.446 11.9795 104.585 11.9795C103.861 11.9795 103.128 12.3302 103.128 13.0034C103.128 13.6109 103.572 14.0117 104.522 14.2559L105.747 14.616C108.303 15.2893 109.439 16.4792 109.439 18.4801C109.436 20.8348 107.404 22.5445 104.607 22.5445Z" fill="white"/>
<path d="M117.53 22.4161C115.184 22.4161 112.676 21.2262 112.676 17.8851V12.4429H110.625V9.63721H112.676V6.0957H115.968V9.63721H119.661V12.4429H115.968V17.1899C115.968 18.8308 116.679 19.5322 118.343 19.5322C118.838 19.5322 119.273 19.4758 119.661 19.3568V22.1687C119.08 22.3378 118.4 22.4161 117.53 22.4161Z" fill="white"/>
<path d="M127.032 22.5445C123.721 22.5445 121.025 19.5854 121.025 15.9468C121.025 12.3082 123.721 9.34912 127.032 9.34912C128.75 9.34912 130.102 10.1852 130.683 11.0181L130.956 11.4064V9.63407H134.249V22.2595H130.956V20.4872L130.683 20.8755C130.105 21.7084 128.75 22.5445 127.032 22.5445ZM127.794 12.2894C125.794 12.2894 124.343 13.83 124.343 15.9499C124.343 18.0698 125.794 19.6104 127.794 19.6104C129.794 19.6104 131.245 18.0698 131.245 15.9499C131.245 13.83 129.791 12.2894 127.794 12.2894Z" fill="white"/>
<path d="M143.177 22.4161C140.831 22.4161 138.322 21.2262 138.322 17.8851V12.4429H136.271V9.63721H138.322V6.0957H141.615V9.63721H145.307V12.4429H141.615V17.1899C141.615 18.8308 142.326 19.5322 143.99 19.5322C144.485 19.5322 144.92 19.4758 145.307 19.3568V22.1687C144.729 22.3378 144.047 22.4161 143.177 22.4161Z" fill="white"/>
<path d="M153.517 22.5445C149.517 22.5445 146.723 19.8328 146.723 15.9468C146.723 12.1861 149.621 9.34912 153.463 9.34912C156.596 9.34912 159.759 11.2686 159.759 15.5585C159.759 15.8435 159.759 16.1629 159.72 16.6263H149.891L149.91 16.7891C150.113 18.4738 151.574 19.6073 153.542 19.6073C154.977 19.6073 156.241 19.0249 156.958 18.0416L159.39 19.8296C158.124 21.5581 155.993 22.5445 153.517 22.5445ZM153.358 11.9794C152.063 11.9794 150.418 12.5994 150.044 14.3436L150.005 14.5221H156.501L156.466 14.3467C156.168 12.9063 154.949 11.9794 153.358 11.9794Z" fill="white"/>
<path d="M24.6463 16.595C24.6876 16.2568 24.713 15.9155 24.713 15.5742C24.713 10.5797 20.8936 6.81274 15.8266 6.81274C10.7627 6.81274 6.94336 10.5797 6.94336 15.5742C6.94336 15.9155 6.96558 16.2568 7.00686 16.595H24.6463ZM15.8266 9.90022C18.5601 9.90022 20.6777 11.5066 21.3508 13.8989H10.2992C10.9754 11.5097 13.093 9.90022 15.8266 9.90022Z" fill="white"/>
<path d="M21.707 18.8933C20.6212 20.8504 18.5607 22.0653 16.2938 22.0653C13.9635 22.0653 11.9316 20.7815 10.8839 18.8933H7.48047C8.71866 22.5256 12.1983 25.1528 16.2938 25.1528C19.5576 25.1528 22.5419 23.4869 24.2278 20.7658L21.707 18.8933Z" fill="white"/>
<path d="M12.2044 0.355957V3.44343H28.5072V22.4755C28.5072 25.8041 25.761 28.5127 22.3861 28.5127H3.08938V18.8902H-0.0410156V31.6002H22.3893C27.4913 31.6002 31.6408 27.5076 31.6408 22.4755V0.355957H12.2044Z" fill="#0098FF"/>
<path d="M9.36166 0.355915C8.92671 0.355915 8.50128 0.387228 8.0822 0.443592C5.79631 0.806824 3.74853 2.11258 2.98339 3.97571C2.97387 3.99763 2.96434 4.01955 2.95799 4.04147V0.741065H-0.0390625V16.5918H3.09134V9.6246C3.09134 6.2146 5.90425 3.44026 9.36166 3.44026H9.88233V0.352783H9.36166V0.355915Z" fill="white"/>
</g>
<defs>
<clipPath id="clip0_4800_170415">
<rect width="207" height="31" fill="white" transform="translate(0 0.5)"/>
</clipPath>
</defs>
</svg>
